<svg width="123" height="126" viewBox="0 0 123 126" fill="none" xmlns="http://www.w3.org/2000/svg">
<circle cx="61.4185" cy="62.4774" r="44.4754" stroke="#1A3066" stroke-width="0.705959"/>
<path d="M10.1561 51.9213L9.88929 53.1L3.05894 51.5537L3.29897 50.4934L8.85171 48.1876L8.86136 48.145L4.07585 47.0617L4.3416 45.8878L11.172 47.434L10.9341 48.4849L5.37551 50.7943L5.36587 50.8369L10.1561 51.9213Z" fill="#1A3066"/>
<path d="M13.2703 41.8377L11.3655 41.7648L10.4654 44.1796L11.9532 45.3712L11.5023 46.5808L5.80803 41.8065L6.30129 40.4831L13.7313 40.6008L13.2703 41.8377ZM7.20327 41.6066L9.66217 43.5694L10.3572 41.7049L7.21514 41.5748L7.20327 41.6066Z" fill="#1A3066"/>
<path d="M15.8221 36.7805L15.1489 38.0496L7.82054 36.9203L8.46639 35.7027L14.2979 36.7851L14.3115 36.7594L10.1447 32.5386L10.7769 31.3466L15.8221 36.7805Z" fill="#1A3066"/>
<path d="M18.3563 32.7555L17.6572 33.7943L11.8473 29.8841L12.5464 28.8453L18.3563 32.7555Z" fill="#1A3066"/>
<path d="M21.7114 23.8945C22.4367 24.51 22.8293 25.1974 22.8893 25.9569C22.9513 26.714 22.6725 27.4576 22.0528 28.1878C21.3913 28.9674 20.6201 29.3738 19.739 29.4069C18.8576 29.4355 17.9876 29.0856 17.1291 28.3571C16.2829 27.6391 15.8061 26.8483 15.6986 25.9848C15.5908 25.1168 15.8645 24.2967 16.5197 23.5245C17.0346 22.9176 17.6352 22.5425 18.3212 22.399C19.0073 22.2556 19.6547 22.3678 20.2633 22.7357L19.4406 23.7053C19.0572 23.537 18.6798 23.4967 18.3082 23.5846C17.9366 23.6724 17.6116 23.8804 17.3332 24.2085C16.925 24.6895 16.7748 25.2091 16.8825 25.7673C16.9902 26.3255 17.345 26.8599 17.947 27.3707C18.5613 27.892 19.1631 28.1629 19.7524 28.1835C20.3438 28.2016 20.8436 27.9701 21.2518 27.489C21.5931 27.0869 21.7555 26.6604 21.7393 26.2095C21.7251 25.7562 21.5336 25.3667 21.1649 25.0411L21.0792 24.9621L19.9865 26.2499L19.2575 25.6313L21.1415 23.411L21.7114 23.8945Z" fill="#1A3066"/>
<path d="M28.4286 21.796L26.7768 20.8446L24.8559 22.5626L25.6178 24.3099L24.6556 25.1705L21.839 18.294L22.8917 17.3525L29.4125 20.9159L28.4286 21.796ZM23.1668 18.7667L24.4291 21.6486L25.9123 20.3221L23.1922 18.7441L23.1668 18.7667Z" fill="#1A3066"/>
<path d="M32.6973 18.7157L31.6787 19.4356L28.2477 14.5803L26.5354 15.7903L25.9249 14.9262L30.3639 11.7893L30.9745 12.6533L29.2663 13.8605L32.6973 18.7157Z" fill="#1A3066"/>
<path d="M35.6541 16.9448L34.5717 17.5744L31.0506 11.5208L32.1329 10.8912L35.6541 16.9448Z" fill="#1A3066"/>
<path d="M39.2232 15.097L38.1192 15.5885L35.2709 9.19069L36.2641 8.74855L41.4342 11.8177L41.4741 11.8L39.4785 7.31751L40.5781 6.828L43.4263 13.2258L42.442 13.664L37.2655 10.5924L37.2256 10.6101L39.2232 15.097Z" fill="#1A3066"/>
<path d="M49.8509 8.34032C50.112 9.25499 50.0566 10.0447 49.6845 10.7095C49.3155 11.3735 48.6706 11.8369 47.7497 12.0998C46.7666 12.3806 45.8995 12.29 45.1485 11.8281C44.3997 11.3622 43.8707 10.588 43.5616 9.50528C43.2569 8.43816 43.2997 7.51576 43.69 6.73807C44.0826 5.95639 44.7657 5.42652 45.7395 5.14846C46.5049 4.92992 47.2126 4.95159 47.8628 5.21346C48.5129 5.47533 48.9888 5.92828 49.2905 6.5723L48.0678 6.92143C47.8426 6.56851 47.551 6.32537 47.1933 6.19198C46.8356 6.0586 46.4498 6.05098 46.036 6.16913C45.4293 6.34236 45.0158 6.69095 44.7952 7.2149C44.5747 7.73884 44.5728 8.38037 44.7896 9.13949C45.0108 9.91416 45.3607 10.4737 45.8393 10.8183C46.321 11.1619 46.8652 11.2471 47.4719 11.0738C47.979 10.929 48.351 10.6647 48.5879 10.2807C48.828 9.89587 48.8852 9.46568 48.7595 8.99012L48.7322 8.87679L47.1081 9.34051L46.8456 8.42117L49.6456 7.62165L49.8509 8.34032Z" fill="#1A3066"/>
<path d="M58.4103 3.11637C59.4273 3.04972 60.2541 3.32139 60.8907 3.9314C61.5305 4.54119 61.8868 5.4014 61.9596 6.51202C62.0324 7.62264 61.7914 8.522 61.2366 9.21008C60.6849 9.89472 59.9005 10.2704 58.8835 10.337C57.8633 10.4039 57.0334 10.134 56.3938 9.52747C55.7572 8.91747 55.4025 8.05715 55.3297 6.94653C55.257 5.83591 55.4963 4.93666 56.0478 4.24879C56.6026 3.56071 57.3901 3.18323 58.4103 3.11637ZM60.0123 4.77688C59.614 4.33931 59.1032 4.14095 58.4801 4.18179C57.857 4.22263 57.3765 4.48434 57.0384 4.96691C56.7004 5.44949 56.557 6.08143 56.6082 6.86274C56.6592 7.64082 56.8838 8.24703 57.2819 8.68136C57.68 9.11569 58.1906 9.31244 58.8137 9.2716C59.4368 9.23076 59.9174 8.96906 60.2554 8.48648C60.5934 8.00391 60.7369 7.37358 60.6859 6.5955C60.6349 5.81741 60.4104 5.21121 60.0123 4.77688Z" fill="#1A3066"/>
<path d="M63.506 3.15186L66.2209 3.35657C66.9178 3.40912 67.4677 3.66798 67.8707 4.13315C68.2739 4.59509 68.4492 5.17451 68.3967 5.87139C68.3444 6.56505 68.0777 7.11114 67.5966 7.50965C67.1188 7.9084 66.525 8.08102 65.8152 8.0275L64.4021 7.92094L64.228 10.2294L62.9794 10.1352L63.506 3.15186ZM64.6776 4.26713L64.478 6.91433L65.6104 6.99972C66.0589 7.03354 66.4161 6.94366 66.682 6.7301C66.9479 6.51654 67.0968 6.19843 67.1287 5.77578C67.1603 5.35636 67.0606 5.02275 66.8294 4.77495C66.6015 4.52739 66.2633 4.38671 65.8148 4.35289L64.6776 4.26713Z" fill="#1A3066"/>
<path d="M72.0001 4.06498L74.6576 4.65713C75.3397 4.80912 75.8468 5.14421 76.1789 5.66238C76.5116 6.1774 76.602 6.77597 76.45 7.4581C76.2987 8.13708 75.9564 8.63925 75.4232 8.96462C74.8931 9.29068 74.2806 9.37631 73.5859 9.2215L72.2027 8.91329L71.6992 11.1729L70.477 10.9005L72.0001 4.06498ZM72.9996 5.33682L72.4222 7.92799L73.5307 8.17498C73.9696 8.27279 74.336 8.2351 74.6299 8.0619C74.9237 7.88871 75.1167 7.59526 75.2089 7.18156C75.3004 6.77101 75.2495 6.42654 75.0563 6.14814C74.8662 5.87044 74.5517 5.68268 74.1128 5.58487L72.9996 5.33682Z" fill="#1A3066"/>
<path d="M83.186 7.16654C84.1399 7.52552 84.7809 8.11418 85.109 8.93253C85.4401 9.75201 85.4097 10.6826 85.0177 11.7243C84.6256 12.7659 84.035 13.4857 83.2457 13.8835C82.4606 14.2795 81.5911 14.2979 80.6373 13.939C79.6804 13.5788 79.0358 12.9906 78.7035 12.1741C78.3754 11.3558 78.4074 10.4257 78.7994 9.38407C79.1914 8.34239 79.7806 7.62207 80.5668 7.2231C81.3561 6.82527 82.2291 6.80642 83.186 7.16654ZM83.96 9.34015C83.7777 8.77721 83.3944 8.38577 82.81 8.16582C82.2255 7.94588 81.6798 7.98594 81.1728 8.28602C80.6657 8.5861 80.2743 9.10255 79.9985 9.83535C79.7239 10.5651 79.6783 11.21 79.8616 11.7699C80.045 12.3298 80.4289 12.7197 81.0134 12.9397C81.5978 13.1596 82.1435 13.1196 82.6506 12.8195C83.1576 12.5194 83.5484 12.0045 83.8231 11.2747C84.0977 10.5449 84.1434 9.90006 83.96 9.34015Z" fill="#1A3066"/>
<path d="M88.3302 10.7556L87.2301 12.8803L88.4842 13.5297C88.8376 13.7126 89.1604 13.7613 89.4525 13.6757C89.7445 13.5901 89.9776 13.3792 90.1516 13.0431C90.3212 12.7155 90.3531 12.4041 90.2473 12.1089C90.1415 11.8136 89.9133 11.5753 89.5628 11.3938L88.3302 10.7556ZM86.7883 13.7337L85.5766 16.0739L84.4647 15.4982L87.6846 9.27912L90.1541 10.5577C90.8236 10.9043 91.2594 11.3504 91.4615 11.8959C91.6651 12.4386 91.6122 13.0087 91.3028 13.6063C91.0871 14.0229 90.7933 14.3371 90.4213 14.549C90.0508 14.7579 89.6474 14.8333 89.2112 14.775L89.2701 17.9862L88.003 17.3302L87.9907 14.3562L86.7883 13.7337Z" fill="#1A3066"/>
<path d="M91.4432 19.5956L90.3971 18.9164L93.6349 13.9302L91.8765 12.7884L92.4527 11.901L97.0115 14.8613L96.4353 15.7486L94.681 14.6094L91.4432 19.5956Z" fill="#1A3066"/>
<path d="M98.6284 16.2674L95.8014 19.6668C95.4911 20.04 95.3513 20.4308 95.3819 20.8392C95.4171 21.2472 95.6313 21.6147 96.0243 21.9415C96.4174 22.2684 96.8177 22.4119 97.2253 22.3722C97.635 22.3299 97.995 22.1222 98.3053 21.7491L101.132 18.3496L102.091 19.1472L99.1929 22.6324C98.6985 23.2269 98.0989 23.5405 97.3943 23.5731C96.6922 23.6078 96.0028 23.3438 95.3261 22.7811C94.652 22.2205 94.2667 21.5908 94.1703 20.892C94.0739 20.1933 94.2729 19.5466 94.7673 18.9521L97.6657 15.4668L98.6284 16.2674Z" fill="#1A3066"/>
<path d="M99.4093 26.4886L98.5948 25.596L103.768 20.8756L104.501 21.6787L103.218 27.5528L103.248 27.5851L106.872 24.2779L107.684 25.167L102.51 29.8873L101.784 29.0914L103.067 23.2105L103.037 23.1782L99.4093 26.4886Z" fill="#1A3066"/>
<path d="M104.033 32.1096L103.293 31.0991L108.945 26.9638L109.685 27.9743L104.033 32.1096Z" fill="#1A3066"/>
<path d="M107.158 36.9976L106.513 35.9299L111.602 32.8564L110.518 31.0617L111.424 30.5148L114.234 35.1677L113.328 35.7146L112.247 33.9241L107.158 36.9976Z" fill="#1A3066"/>
<path d="M108.712 40.0737L108.162 38.9489L114.453 35.8715L115.003 36.9963L108.712 40.0737Z" fill="#1A3066"/>
<path d="M112.424 46.5326L111.429 46.8924L109.888 42.6296L116.474 40.2481L118.015 44.5109L117.02 44.8707L115.905 41.7854L114.125 42.429L115.179 45.3454L114.244 45.6838L113.189 42.7674L111.309 43.4473L112.424 46.5326Z" fill="#1A3066"/>
<path d="M114.006 48.7681L114.266 49.9532C113.962 50.0598 113.744 50.2764 113.614 50.6032C113.487 50.9292 113.469 51.3024 113.561 51.7227C113.652 52.1335 113.817 52.4484 114.057 52.6673C114.298 52.8894 114.56 52.9692 114.845 52.9067C115.091 52.8526 115.27 52.7141 115.38 52.4912C115.493 52.2676 115.553 51.9298 115.56 51.4778L115.574 50.5456C115.581 49.8848 115.704 49.3675 115.944 48.9936C116.184 48.623 116.548 48.3839 117.038 48.2763C117.642 48.1438 118.184 48.2733 118.664 48.6648C119.144 49.0563 119.466 49.6265 119.631 50.3755C119.796 51.1276 119.742 51.7738 119.47 52.3139C119.201 52.8564 118.767 53.2018 118.167 53.3501L117.911 52.184C118.224 52.0855 118.443 51.8932 118.569 51.6072C118.699 51.3205 118.72 50.9796 118.633 50.5845C118.549 50.199 118.393 49.9052 118.166 49.7032C117.941 49.5043 117.685 49.4361 117.401 49.4985C117.173 49.5485 117.009 49.6807 116.907 49.8952C116.805 50.1129 116.75 50.443 116.742 50.8855L116.734 51.7119C116.728 52.4387 116.608 52.9918 116.373 53.3713C116.138 53.7508 115.766 53.9963 115.258 54.108C114.61 54.2502 114.041 54.12 113.552 53.7172C113.067 53.317 112.733 52.7028 112.551 51.8748C112.378 51.0848 112.42 50.4097 112.678 49.8496C112.94 49.2919 113.383 48.9314 114.006 48.7681Z" fill="#1A3066"/>
<path d="M112.984 74.5303L113.251 73.3517L120.081 74.898L119.841 75.9583L114.288 78.2641L114.279 78.3067L119.064 79.39L118.799 80.5639L111.968 79.0176L112.206 77.9668L117.765 75.6574L117.774 75.6147L112.984 74.5303Z" fill="#1A3066"/>
<path d="M109.87 84.6134L111.775 84.6864L112.675 82.2716L111.187 81.08L111.638 79.8703L117.332 84.6447L116.839 85.968L109.409 85.8504L109.87 84.6134ZM115.937 84.8446L113.478 82.8818L112.783 84.7463L115.925 84.8764L115.937 84.8446Z" fill="#1A3066"/>
<path d="M107.318 89.6712L107.991 88.4021L115.32 89.5313L114.674 90.749L108.842 89.6666L108.829 89.6923L112.996 93.9131L112.363 95.105L107.318 89.6712Z" fill="#1A3066"/>
<path d="M104.784 93.6961L105.483 92.6573L111.293 96.5676L110.594 97.6063L104.784 93.6961Z" fill="#1A3066"/>
<path d="M101.429 102.557C100.703 101.942 100.311 101.254 100.251 100.495C100.189 99.7377 100.468 98.9941 101.087 98.2638C101.749 97.4843 102.52 97.0779 103.401 97.0447C104.282 97.0161 105.152 97.3661 106.011 98.0946C106.857 98.8126 107.334 99.6034 107.441 100.467C107.549 101.335 107.276 102.155 106.62 102.927C106.105 103.534 105.505 103.909 104.819 104.053C104.133 104.196 103.485 104.084 102.877 103.716L103.699 102.746C104.083 102.915 104.46 102.955 104.832 102.867C105.203 102.779 105.528 102.571 105.807 102.243C106.215 101.762 106.365 101.243 106.258 100.684C106.15 100.126 105.795 99.5917 105.193 99.0809C104.579 98.5597 103.977 98.2888 103.388 98.2682C102.796 98.2501 102.296 98.4815 101.888 98.9626C101.547 99.3647 101.384 99.7912 101.401 100.242C101.415 100.695 101.606 101.085 101.975 101.411L102.061 101.49L103.154 100.202L103.883 100.82L101.998 103.041L101.429 102.557Z" fill="#1A3066"/>
<path d="M94.7116 104.656L96.3633 105.607L98.2842 103.889L97.5223 102.142L98.4846 101.281L101.301 108.158L100.248 109.099L93.7276 105.536L94.7116 104.656ZM99.9733 107.685L98.711 104.803L97.2279 106.13L99.948 107.708L99.9733 107.685Z" fill="#1A3066"/>
<path d="M90.4429 107.736L91.4615 107.016L94.8925 111.871L96.6047 110.661L97.2153 111.525L92.7762 114.662L92.1656 113.798L93.8739 112.591L90.4429 107.736Z" fill="#1A3066"/>
<path d="M87.486 109.507L88.5684 108.877L92.0896 114.931L91.0072 115.56L87.486 109.507Z" fill="#1A3066"/>
<path d="M83.917 111.355L85.021 110.863L87.8692 117.261L86.8761 117.703L81.706 114.634L81.6661 114.652L83.6616 119.134L82.5621 119.624L79.7138 113.226L80.6981 112.788L85.8746 115.859L85.9145 115.842L83.917 111.355Z" fill="#1A3066"/>
<path d="M73.2893 118.111C73.0281 117.197 73.0836 116.407 73.4556 115.742C73.8246 115.078 74.4696 114.615 75.3905 114.352C76.3736 114.071 77.2406 114.162 77.9916 114.624C78.7404 115.089 79.2694 115.864 79.5785 116.946C79.8833 118.013 79.8404 118.936 79.4501 119.714C79.0576 120.495 78.3744 121.025 77.4006 121.303C76.6353 121.522 75.9275 121.5 75.2774 121.238C74.6272 120.976 74.1513 120.523 73.8496 119.879L75.0723 119.53C75.2976 119.883 75.5891 120.126 75.9468 120.26C76.3046 120.393 76.6903 120.401 77.1041 120.283C77.7108 120.109 78.1244 119.761 78.3449 119.237C78.5654 118.713 78.5673 118.071 78.3505 117.312C78.1293 116.538 77.7794 115.978 77.3008 115.633C76.8191 115.29 76.275 115.205 75.6683 115.378C75.1612 115.523 74.7891 115.787 74.5522 116.171C74.3121 116.556 74.255 116.986 74.3807 117.462L74.408 117.575L76.032 117.111L76.2945 118.03L73.4945 118.83L73.2893 118.111Z" fill="#1A3066"/>
<path d="M64.7298 123.335C63.7128 123.402 62.8861 123.13 62.2495 122.52C61.6097 121.91 61.2534 121.05 61.1806 119.94C61.1078 118.829 61.3488 117.93 61.9035 117.242C62.4552 116.557 63.2396 116.181 64.2566 116.115C65.2768 116.048 66.1067 116.318 66.7463 116.924C67.3829 117.534 67.7376 118.395 67.8104 119.505C67.8832 120.616 67.6438 121.515 67.0923 122.203C66.5375 122.891 65.7501 123.268 64.7298 123.335ZM63.1279 121.675C63.5262 122.112 64.0369 122.311 64.66 122.27C65.2831 122.229 65.7637 121.967 66.1017 121.485C66.4397 121.002 66.5831 120.37 66.5319 119.589C66.4809 118.811 66.2563 118.205 65.8582 117.77C65.4601 117.336 64.9495 117.139 64.3264 117.18C63.7033 117.221 63.2228 117.483 62.8848 117.965C62.5467 118.448 62.4032 119.078 62.4542 119.856C62.5052 120.634 62.7298 121.24 63.1279 121.675Z" fill="#1A3066"/>
<path d="M59.6342 123.3L56.9192 123.095C56.2223 123.043 55.6724 122.784 55.2694 122.319C54.8663 121.857 54.6909 121.277 54.7435 120.58C54.7958 119.887 55.0625 119.341 55.5435 118.942C56.0214 118.543 56.6152 118.371 57.325 118.424L58.7381 118.531L58.9121 116.222L60.1607 116.316L59.6342 123.3ZM58.4626 122.185L58.6622 119.537L57.5297 119.452C57.0813 119.418 56.7241 119.508 56.4581 119.722C56.1922 119.935 56.0433 120.253 56.0114 120.676C55.9798 121.095 56.0796 121.429 56.3107 121.677C56.5386 121.924 56.8768 122.065 57.3253 122.099L58.4626 122.185Z" fill="#1A3066"/>
<path d="M51.14 122.387L48.4825 121.795C47.8004 121.643 47.2933 121.307 46.9613 120.789C46.6285 120.274 46.5381 119.676 46.6901 118.994C46.8414 118.315 47.1837 117.812 47.717 117.487C48.2471 117.161 48.8595 117.075 49.5543 117.23L50.9375 117.538L51.441 115.279L52.6631 115.551L51.14 122.387ZM50.1406 121.115L50.7179 118.524L49.6095 118.277C49.1705 118.179 48.8041 118.217 48.5103 118.39C48.2164 118.563 48.0234 118.856 47.9312 119.27C47.8398 119.681 47.8906 120.025 48.0838 120.304C48.2739 120.581 48.5884 120.769 49.0274 120.867L50.1406 121.115Z" fill="#1A3066"/>
<path d="M39.9541 119.285C39.0002 118.926 38.3592 118.337 38.0311 117.519C37.7 116.7 37.7304 115.769 38.1225 114.727C38.5145 113.686 39.1051 112.966 39.8944 112.568C40.6795 112.172 41.549 112.154 42.5029 112.513C43.4597 112.873 44.1043 113.461 44.4366 114.278C44.7647 115.096 44.7328 116.026 44.3407 117.068C43.9487 118.109 43.3596 118.83 42.5733 119.229C41.7841 119.626 40.911 119.645 39.9541 119.285ZM39.1802 117.112C39.3624 117.674 39.7457 118.066 40.3302 118.286C40.9146 118.506 41.4603 118.466 41.9674 118.166C42.4744 117.866 42.8658 117.349 43.1416 116.616C43.4162 115.887 43.4619 115.242 43.2785 114.682C43.0951 114.122 42.7112 113.732 42.1268 113.512C41.5423 113.292 40.9966 113.332 40.4896 113.632C39.9826 113.932 39.5917 114.447 39.3171 115.177C39.0424 115.907 38.9968 116.552 39.1802 117.112Z" fill="#1A3066"/>
<path d="M34.81 115.696L35.9101 113.571L34.6559 112.922C34.3025 112.739 33.9798 112.69 33.6877 112.776C33.3956 112.862 33.1625 113.072 32.9885 113.409C32.8189 113.736 32.787 114.048 32.8928 114.343C32.9987 114.638 33.2268 114.876 33.5774 115.058L34.81 115.696ZM36.3519 112.718L37.5635 110.378L38.6755 110.953L35.4555 117.173L32.986 115.894C32.3165 115.547 31.8808 115.101 31.6786 114.556C31.475 114.013 31.5279 113.443 31.8373 112.845C32.053 112.429 32.3469 112.115 32.7189 111.903C33.0894 111.694 33.4927 111.618 33.9289 111.677L33.87 108.465L35.1371 109.121L35.1494 112.095L36.3519 112.718Z" fill="#1A3066"/>
<path d="M31.6967 106.856L32.7427 107.535L29.505 112.521L31.2634 113.663L30.6872 114.551L26.1284 111.59L26.7046 110.703L28.4589 111.842L31.6967 106.856Z" fill="#1A3066"/>
<path d="M24.5118 110.184L27.3387 106.785C27.649 106.412 27.7889 106.021 27.7582 105.612C27.723 105.204 27.5089 104.837 27.1158 104.51C26.7227 104.183 26.3224 104.04 25.9148 104.079C25.5052 104.122 25.1452 104.329 24.8349 104.703L22.0079 108.102L21.0489 107.305L23.9472 103.819C24.4417 103.225 25.0412 102.911 25.7458 102.879C26.448 102.844 27.1374 103.108 27.814 103.671C28.4882 104.231 28.8735 104.861 28.9699 105.56C29.0663 106.258 28.8673 106.905 28.3728 107.5L25.4745 110.985L24.5118 110.184Z" fill="#1A3066"/>
<path d="M23.731 99.963L24.5455 100.856L19.3722 105.576L18.6394 104.773L19.9218 98.8989L19.8924 98.8666L16.2678 102.174L15.4566 101.285L20.6299 96.5643L21.3561 97.3602L20.0734 103.241L20.1028 103.273L23.731 99.963Z" fill="#1A3066"/>
<path d="M19.1072 94.3421L19.8465 95.3526L14.1946 99.4879L13.4553 98.4774L19.1072 94.3421Z" fill="#1A3066"/>
<path d="M15.9821 89.4541L16.627 90.5217L11.5379 93.5952L12.6217 95.3899L11.7161 95.9369L8.90603 91.284L9.81168 90.737L10.8931 92.5276L15.9821 89.4541Z" fill="#1A3066"/>
<path d="M14.4281 86.378L14.9783 87.5028L8.68748 90.5801L8.13727 89.4554L14.4281 86.378Z" fill="#1A3066"/>
<path d="M10.7158 79.9191L11.7108 79.5593L13.2522 83.8221L6.66636 86.2035L5.12493 81.9408L6.11988 81.581L7.23552 84.6663L9.01548 84.0226L7.9609 81.1062L8.89652 80.7679L9.95109 83.6843L11.8315 83.0043L10.7158 79.9191Z" fill="#1A3066"/>
<path d="M9.13416 77.6836L8.87402 76.4985C9.17856 76.3919 9.396 76.1752 9.52634 75.8485C9.65352 75.5225 9.67098 75.1493 9.57872 74.729C9.48854 74.3181 9.32336 74.0033 9.08318 73.7844C8.84231 73.5623 8.57966 73.4825 8.29524 73.5449C8.04874 73.599 7.87046 73.7375 7.76039 73.9605C7.64716 74.1841 7.58715 74.5219 7.58037 74.9738L7.56638 75.9061C7.55906 76.5669 7.43577 77.0842 7.19652 77.458C6.95657 77.8287 6.59168 78.0678 6.10184 78.1753C5.49824 78.3078 4.95637 78.1783 4.47625 77.7868C3.99612 77.3954 3.67386 76.8251 3.50945 76.0762C3.34434 75.324 3.39795 74.6779 3.67027 74.1378C3.93874 73.5953 4.37304 73.2498 4.97318 73.1015L5.22916 74.2676C4.91622 74.3662 4.69673 74.5584 4.57071 74.8445C4.44152 75.1312 4.42029 75.4721 4.507 75.8671C4.59163 76.2527 4.74722 76.5464 4.97375 76.7485C5.19959 76.9473 5.45473 77.0156 5.73915 76.9531C5.96668 76.9032 6.13144 76.7709 6.23342 76.5564C6.3347 76.3388 6.38977 76.0087 6.39863 75.5662L6.40603 74.7397C6.41212 74.0129 6.53252 73.4598 6.76723 73.0804C7.00193 72.7009 7.37369 72.4553 7.88248 72.3436C8.53033 72.2014 9.09887 72.3317 9.58809 72.7344C10.0735 73.1347 10.407 73.7488 10.5888 74.5768C10.7622 75.3669 10.7199 76.042 10.4619 76.6021C10.2001 77.1598 9.7575 77.5203 9.13416 77.6836Z" fill="#1A3066"/>
</svg>
