<svg width="57" height="56" viewBox="0 0 57 56" fill="none" xmlns="http://www.w3.org/2000/svg">
<rect x="0.5" width="56" height="56" fill="#17A8AB"/>
<path d="M42.2266 34.3333C41.7866 37.88 38.88 40.7867 35.3333 41.2267C33.1866 41.4933 31.1866 40.9067 29.6266 39.76C28.7333 39.1067 28.9466 37.72 30.0133 37.4C34.0266 36.1867 37.1866 33.0133 38.4133 29C38.7333 27.9467 40.12 27.7333 40.7733 28.6133C41.9066 30.1867 42.4933 32.1867 42.2266 34.3333Z" fill="white"/>
<path d="M26.3198 14.6666C20.4398 14.6666 15.6665 19.44 15.6665 25.32C15.6665 31.2 20.4398 35.9733 26.3198 35.9733C32.1998 35.9733 36.9732 31.2 36.9732 25.32C36.9598 19.44 32.1998 14.6666 26.3198 14.6666ZM25.0665 23.8266L28.2798 24.9466C29.4398 25.36 29.9998 26.1733 29.9998 27.4266C29.9998 28.8666 28.8532 30.0533 27.4532 30.0533H27.3332V30.12C27.3332 30.6666 26.8798 31.12 26.3332 31.12C25.7865 31.12 25.3332 30.6666 25.3332 30.12V30.04C23.8532 29.9733 22.6665 28.7333 22.6665 27.1866C22.6665 26.64 23.1198 26.1866 23.6665 26.1866C24.2132 26.1866 24.6665 26.64 24.6665 27.1866C24.6665 27.6666 25.0132 28.0533 25.4398 28.0533H27.4398C27.7465 28.0533 27.9865 27.7733 27.9865 27.4266C27.9865 26.96 27.9065 26.9333 27.5998 26.8266L24.3865 25.7066C23.2398 25.3066 22.6665 24.4933 22.6665 23.2266C22.6665 21.7866 23.8132 20.6 25.2132 20.6H25.3332V20.5466C25.3332 20 25.7865 19.5466 26.3332 19.5466C26.8798 19.5466 27.3332 20 27.3332 20.5466V20.6266C28.8132 20.6933 29.9998 21.9333 29.9998 23.48C29.9998 24.0266 29.5465 24.48 28.9998 24.48C28.4532 24.48 27.9998 24.0266 27.9998 23.48C27.9998 23 27.6532 22.6133 27.2265 22.6133H25.2265C24.9198 22.6133 24.6798 22.8933 24.6798 23.24C24.6665 23.6933 24.7465 23.72 25.0665 23.8266Z" fill="white"/>
</svg>
