<svg width="24" height="24" viewBox="0 0 24 24" fill="none" xmlns="http://www.w3.org/2000/svg">
<path d="M7.5 9.5V19.5C7.5 19.6326 7.44732 19.7598 7.35355 19.8536C7.25979 19.9473 7.13261 20 7 20H4.5C4.36739 20 4.24022 19.9473 4.14645 19.8536C4.05268 19.7598 4 19.6326 4 19.5V9.5C4 9.36739 4.05268 9.24021 4.14645 9.14645C4.24022 9.05268 4.36739 9 4.5 9H7C7.13261 9 7.25979 9.05268 7.35355 9.14645C7.44732 9.24021 7.5 9.36739 7.5 9.5ZM21 13.41C21.0167 12.3591 20.6739 11.334 20.0282 10.5047C19.3826 9.67535 18.4729 9.09154 17.45 8.85C16.754 8.70013 16.0322 8.71906 15.345 8.90521C14.6578 9.09136 14.0252 9.43932 13.5 9.92V9.5C13.5 9.36739 13.4473 9.24021 13.3536 9.14645C13.2598 9.05268 13.1326 9 13 9H10.5C10.3674 9 10.2402 9.05268 10.1464 9.14645C10.0527 9.24021 10 9.36739 10 9.5V19.5C10 19.6326 10.0527 19.7598 10.1464 19.8536C10.2402 19.9473 10.3674 20 10.5 20H13C13.1326 20 13.2598 19.9473 13.3536 19.8536C13.4473 19.7598 13.5 19.6326 13.5 19.5V13.86C13.488 13.3735 13.6479 12.8983 13.9515 12.5179C14.255 12.1375 14.6829 11.8762 15.16 11.78C15.4496 11.73 15.7467 11.7445 16.0301 11.8223C16.3135 11.9002 16.5762 12.0396 16.7997 12.2305C17.0231 12.4215 17.2017 12.6593 17.3227 12.9271C17.4437 13.1949 17.5043 13.4861 17.5 13.78V19.5C17.5 19.6326 17.5527 19.7598 17.6464 19.8536C17.7402 19.9473 17.8674 20 18 20H20.5C20.6326 20 20.7598 19.9473 20.8536 19.8536C20.9473 19.7598 21 19.6326 21 19.5V13.41ZM5.5 3C5.10444 3 4.71776 3.1173 4.38886 3.33706C4.05996 3.55682 3.80362 3.86918 3.65224 4.23463C3.50087 4.60009 3.46126 5.00222 3.53843 5.39018C3.6156 5.77814 3.80608 6.13451 4.08579 6.41421C4.36549 6.69392 4.72186 6.8844 5.10982 6.96157C5.49778 7.03874 5.89992 6.99913 6.26537 6.84776C6.63082 6.69638 6.94318 6.44004 7.16294 6.11114C7.3827 5.78224 7.5 5.39556 7.5 5C7.5 4.46957 7.28929 3.96086 6.91421 3.58579C6.53914 3.21071 6.03043 3 5.5 3Z" fill="white"/>
</svg>
