<svg width="57" height="56" viewBox="0 0 57 56" fill="none" xmlns="http://www.w3.org/2000/svg">
<rect x="0.5" width="56" height="56" fill="#17A8AB"/>
<path d="M36.3734 22.36C36.2801 22.3466 36.1867 22.3466 36.0934 22.36C34.0267 22.2933 32.3867 20.6 32.3867 18.52C32.3867 16.4 34.1067 14.6666 36.2401 14.6666C38.3601 14.6666 40.0934 16.3866 40.0934 18.52C40.0801 20.6 38.4401 22.2933 36.3734 22.36Z" fill="white"/>
<path d="M40.72 31.6C39.2266 32.6 37.1333 32.9734 35.2 32.72C35.7066 31.6267 35.9733 30.4134 35.9866 29.1334C35.9866 27.8001 35.6933 26.5334 35.1333 25.4267C37.1066 25.16 39.2 25.5334 40.7066 26.5334C42.8133 27.92 42.8133 30.2 40.72 31.6Z" fill="white"/>
<path d="M21.5865 22.36C21.6799 22.3466 21.7732 22.3466 21.8665 22.36C23.9332 22.2933 25.5732 20.6 25.5732 18.52C25.5732 16.3866 23.8532 14.6666 21.7199 14.6666C19.5999 14.6666 17.8799 16.3866 17.8799 18.52C17.8799 20.6 19.5199 22.2933 21.5865 22.36Z" fill="white"/>
<path d="M21.7332 29.1334C21.7332 30.4267 22.0132 31.6534 22.5199 32.7601C20.6399 32.9601 18.6799 32.5601 17.2399 31.6134C15.1332 30.2134 15.1332 27.9334 17.2399 26.5334C18.6666 25.5734 20.6799 25.1867 22.5732 25.4001C22.0266 26.5201 21.7332 27.7867 21.7332 29.1334Z" fill="white"/>
<path d="M29.1599 33.16C29.0532 33.1467 28.9332 33.1467 28.8132 33.16C26.3599 33.08 24.3999 31.0667 24.3999 28.5867C24.4132 26.0533 26.4532 24 28.9999 24C31.5332 24 33.5866 26.0533 33.5866 28.5867C33.5732 31.0667 31.6266 33.08 29.1599 33.16Z" fill="white"/>
<path d="M24.8267 35.92C22.8133 37.2667 22.8133 39.48 24.8267 40.8134C27.12 42.3467 30.88 42.3467 33.1733 40.8134C35.1867 39.4667 35.1867 37.2534 33.1733 35.92C30.8933 34.3867 27.1333 34.3867 24.8267 35.92Z" fill="white"/>
</svg>
