<svg width="24" height="24" viewBox="0 0 24 24" fill="none" xmlns="http://www.w3.org/2000/svg">
<path fill-rule="evenodd" clip-rule="evenodd" d="M21.9998 6.45006C21.483 7.13912 20.8583 7.74019 20.1498 8.23006C20.1498 8.41006 20.1498 8.59006 20.1498 8.78006C20.1526 10.3983 19.8335 12.0009 19.211 13.4946C18.5884 14.9882 17.675 16.3432 16.5238 17.4804C15.3725 18.6177 14.0066 19.5145 12.5054 20.1188C11.0043 20.723 9.39788 21.0226 7.77982 21.0001C5.89025 21.0064 4.02487 20.5751 2.32982 19.7401C2.2851 19.7205 2.24707 19.6884 2.22042 19.6475C2.19376 19.6066 2.17965 19.5589 2.17982 19.5101V19.4001C2.17982 19.3311 2.20721 19.265 2.25597 19.2162C2.30473 19.1675 2.37086 19.1401 2.43982 19.1401C4.29722 19.0789 6.08836 18.4352 7.55982 17.3001C6.73603 17.2835 5.9337 17.0343 5.24542 16.5814C4.55713 16.1284 4.01093 15.4901 3.66982 14.7401C3.65253 14.6989 3.64611 14.6541 3.65116 14.6098C3.65622 14.5655 3.6726 14.5232 3.69871 14.487C3.72482 14.4509 3.7598 14.422 3.80027 14.4033C3.84074 14.3846 3.88536 14.3766 3.92982 14.3801C4.44078 14.4314 4.95684 14.3839 5.44982 14.2401C4.5453 14.0524 3.72376 13.5823 3.10369 12.8975C2.48363 12.2127 2.09709 11.3487 1.99982 10.4301C1.99633 10.3856 2.00434 10.341 2.02307 10.3005C2.04181 10.26 2.07064 10.2251 2.1068 10.1989C2.14295 10.1728 2.18522 10.1565 2.22953 10.1514C2.27384 10.1463 2.31871 10.1528 2.35982 10.1701C2.85787 10.3897 3.39551 10.5054 3.93982 10.5101C3.14904 9.99128 2.55237 9.22519 2.243 8.33146C1.93363 7.43773 1.929 6.4667 2.22982 5.57006C2.26121 5.48198 2.31493 5.40356 2.38573 5.34248C2.45653 5.2814 2.54197 5.23975 2.6337 5.22161C2.72542 5.20346 2.82029 5.20945 2.90901 5.23898C2.99773 5.26851 3.07726 5.32057 3.13982 5.39006C5.3343 7.72454 8.34956 9.11564 11.5498 9.27006C11.4678 8.94311 11.4275 8.60712 11.4298 8.27006C11.4445 7.40591 11.7156 6.5656 12.2088 5.85586C12.702 5.14612 13.395 4.59897 14.1998 4.28391C15.0046 3.96885 15.8849 3.90008 16.7289 4.08635C17.5728 4.27262 18.3424 4.70551 18.9398 5.33006C19.7727 5.17147 20.5779 4.89184 21.3298 4.50006C21.3568 4.48321 21.388 4.47428 21.4198 4.47428C21.4516 4.47428 21.4828 4.48321 21.5098 4.50006C21.5267 4.52706 21.5356 4.55824 21.5356 4.59006C21.5356 4.62188 21.5267 4.65306 21.5098 4.68006C21.1456 5.51366 20.5304 6.21283 19.7498 6.68006C20.4333 6.60083 21.1048 6.43968 21.7498 6.20006C21.7764 6.182 21.8077 6.17235 21.8398 6.17235C21.8719 6.17235 21.9033 6.182 21.9298 6.20006C21.9523 6.21034 21.9723 6.22539 21.9883 6.24418C22.0044 6.26296 22.0162 6.28502 22.0228 6.30882C22.0295 6.33262 22.0309 6.35758 22.0269 6.38198C22.0229 6.40637 22.0137 6.4296 21.9998 6.45006Z" fill="white"/>
</svg>
