<svg width="57" height="56" viewBox="0 0 57 56" fill="none" xmlns="http://www.w3.org/2000/svg">
<rect x="0.5" width="56" height="56" fill="#17A8AB"/>
<path d="M38.4935 31.92L38.9202 32.7866C39.1335 33.2133 39.6802 33.6133 40.1335 33.6933L40.7069 33.7866C42.4535 34.08 42.8535 35.36 41.6135 36.6133L41.0802 37.1466C40.7202 37.5066 40.5335 38.2 40.6402 38.7066L40.7069 39.0266C41.1869 41.1333 40.0669 41.9466 38.2402 40.84L37.8535 40.6C37.3869 40.32 36.6135 40.32 36.1469 40.6L35.7602 40.84C33.9202 41.9466 32.8135 41.1333 33.2935 39.0266L33.3602 38.7066C33.4669 38.2133 33.2802 37.5066 32.9202 37.1466L32.3869 36.6133C31.1469 35.3466 31.5469 34.08 33.2935 33.7866L33.8669 33.6933C34.3335 33.6133 34.8669 33.2133 35.0802 32.7866L35.5069 31.92C36.3335 30.2533 37.6669 30.2533 38.4935 31.92Z" fill="white"/>
<path d="M34.5865 14.6667H23.4132C18.5598 14.6667 15.6665 17.56 15.6665 22.4134V33.5867C15.6665 38.44 18.5598 41.3334 23.4132 41.3334H30.4532C30.9198 41.3334 31.2532 40.8534 31.1998 40.3867C31.1465 39.88 31.1732 39.28 31.3332 38.5867C31.3598 38.4934 31.3332 38.3867 31.2532 38.3067L30.9598 38.0134C29.8265 36.8667 29.4132 35.48 29.8132 34.2134C30.2265 32.96 31.3732 32.08 32.9598 31.8134L33.3598 31.7467L33.7198 31.0267C34.4532 29.5334 35.6532 28.6667 36.9998 28.6667C38.3465 28.6667 39.5465 29.5334 40.2798 31.0267L40.4798 31.44C40.5732 31.64 40.7598 31.7734 40.9732 31.8134C41.0932 31.84 41.2132 31.8667 41.3332 31.8934C41.7998 32.0134 42.3332 31.64 42.3332 31.1467V22.4134C42.3332 17.56 39.4398 14.6667 34.5865 14.6667ZM34.6798 23.9467L31.5998 27.92C31.2132 28.4134 30.6665 28.7334 30.0398 28.8C29.4265 28.88 28.7998 28.7067 28.3198 28.32L25.8798 26.4267C25.7865 26.3467 25.6798 26.3467 25.6265 26.36C25.5732 26.36 25.4798 26.3867 25.3998 26.4934L22.2265 30.6134C22.0265 30.8667 21.7332 31 21.4265 31C21.2132 31 20.9998 30.9334 20.8132 30.7867C20.3732 30.4534 20.2932 29.8267 20.6265 29.3867L23.7998 25.2667C24.1865 24.7734 24.7332 24.4534 25.3598 24.3734C25.9865 24.2934 26.5998 24.4667 27.0932 24.8534L29.5332 26.7734C29.6265 26.8534 29.7198 26.84 29.7865 26.84C29.8398 26.84 29.9332 26.8134 30.0132 26.7067L33.0932 22.7334C33.4265 22.2934 34.0532 22.2134 34.4932 22.56C34.9465 22.8934 35.0132 23.52 34.6798 23.9467Z" fill="white"/>
</svg>
