<svg width="57" height="56" viewBox="0 0 57 56" fill="none" xmlns="http://www.w3.org/2000/svg">
<rect x="0.5" width="56" height="56" fill="#17A8AB"/>
<path d="M35.9067 19C33.6267 19 30.9067 19.8667 30.9067 24V32C30.9067 36.1333 33.6267 37 35.9067 37C38.1867 37 40.9067 36.1333 40.9067 32V24C40.9067 19.8667 38.1867 19 35.9067 19Z" fill="white"/>
<path d="M22.0933 19C19.8133 19 17.0933 19.8667 17.0933 24V32C17.0933 36.1333 19.8133 37 22.0933 37C24.3733 37 27.0933 36.1333 27.0933 32V24C27.0933 19.8667 24.3733 19 22.0933 19Z" fill="white"/>
<path d="M30.9066 27H27.0933V29H30.9066V27Z" fill="white"/>
<path d="M43 32.3334C42.4533 32.3334 42 31.88 42 31.3334V24.6667C42 24.12 42.4533 23.6667 43 23.6667C43.5467 23.6667 44 24.12 44 24.6667V31.3334C44 31.88 43.5467 32.3334 43 32.3334Z" fill="white"/>
<path d="M15 32.3334C14.4533 32.3334 14 31.88 14 31.3334V24.6667C14 24.12 14.4533 23.6667 15 23.6667C15.5467 23.6667 16 24.12 16 24.6667V31.3334C16 31.88 15.5467 32.3334 15 32.3334Z" fill="white"/>
</svg>
